<svg width="22" height="19" viewBox="0 0 22 19" fill="none" xmlns="http://www.w3.org/2000/svg">
<path d="M16 6.41211H18V4.41211H16V6.41211ZM16 10.4121H18V8.41211H16V10.4121ZM16 14.4121H18V12.4121H16V14.4121ZM16 18.4121V16.4121H20V2.41211H11V3.81211L9 2.36211C9 1.82878 9.196 1.37044 9.588 0.987109C9.97933 0.603776 10.45 0.412109 11 0.412109H20C20.55 0.412109 21.021 0.607776 21.413 0.999109C21.8043 1.39111 22 1.86211 22 2.41211V16.4121C22 16.9621 21.8043 17.4331 21.413 17.8251C21.021 18.2164 20.55 18.4121 20 18.4121H16ZM0 17.4121V9.43711C0 9.10378 0.075 8.79544 0.225 8.51211C0.375 8.22878 0.583333 7.99544 0.85 7.81211L5.85 4.23711C6.2 3.98711 6.58333 3.86211 7 3.86211C7.41667 3.86211 7.8 3.98711 8.15 4.23711L13.15 7.81211C13.4167 7.99544 13.625 8.22878 13.775 8.51211C13.925 8.79544 14 9.10378 14 9.43711V17.4121C14 17.6954 13.9043 17.9328 13.713 18.1241C13.521 18.3161 13.2833 18.4121 13 18.4121H8V13.4121H6V18.4121H1C0.716667 18.4121 0.479333 18.3161 0.288 18.1241C0.096 17.9328 0 17.6954 0 17.4121ZM2 16.4121H4V11.4121H10V16.4121H12V9.41211L7 5.86211L2 9.41211V16.4121ZM10 16.4121V11.4121H4V16.4121V11.4121H10V16.4121Z" fill="white"/>
</svg>
