<svg width="16" height="16" viewBox="0 0 16 16" fill="none" xmlns="http://www.w3.org/2000/svg">
<path d="M9.19961 0.799805C8.88135 0.799805 8.57612 0.926233 8.35108 1.15128C8.12604 1.37632 7.99961 1.68154 7.99961 1.9998V5.9998C7.99961 6.31806 8.12604 6.62329 8.35108 6.84833C8.57612 7.07338 8.88135 7.1998 9.19961 7.1998H13.9996C14.3179 7.1998 14.6231 7.07338 14.8481 6.84833C15.0732 6.62329 15.1996 6.31806 15.1996 5.9998V1.9998C15.1996 1.68154 15.0732 1.37632 14.8481 1.15128C14.6231 0.926233 14.3179 0.799805 13.9996 0.799805H9.19961ZM9.99961 4.7998H13.1996C13.3057 4.7998 13.4074 4.84195 13.4825 4.91696C13.5575 4.99198 13.5996 5.09372 13.5996 5.1998C13.5996 5.30589 13.5575 5.40763 13.4825 5.48265C13.4074 5.55766 13.3057 5.5998 13.1996 5.5998H9.99961C9.89352 5.5998 9.79178 5.55766 9.71677 5.48265C9.64175 5.40763 9.59961 5.30589 9.59961 5.1998C9.59961 5.09372 9.64175 4.99198 9.71677 4.91696C9.79178 4.84195 9.89352 4.7998 9.99961 4.7998ZM9.59961 2.7998C9.59961 2.69372 9.64175 2.59198 9.71677 2.51696C9.79178 2.44195 9.89352 2.3998 9.99961 2.3998H13.1996C13.3057 2.3998 13.4074 2.44195 13.4825 2.51696C13.5575 2.59198 13.5996 2.69372 13.5996 2.7998C13.5996 2.90589 13.5575 3.00763 13.4825 3.08265C13.4074 3.15766 13.3057 3.1998 13.1996 3.1998H9.99961C9.89352 3.1998 9.79178 3.15766 9.71677 3.08265C9.64175 3.00763 9.59961 2.90589 9.59961 2.7998ZM3.67961 2.3998H7.19961V5.9998C7.19961 6.53024 7.41032 7.03895 7.7854 7.41402C8.16047 7.78909 8.66918 7.9998 9.19961 7.9998H13.9996C14.1364 7.9998 14.27 7.9862 14.3996 7.9598V9.82061C14.3996 10.955 13.4684 11.8734 12.3196 11.8734H8.64761L5.43881 14.2422C5.26851 14.3677 5.05572 14.4214 4.84626 14.3916C4.63679 14.3619 4.44739 14.251 4.31881 14.083C4.21574 13.9472 4.15984 13.7815 4.15961 13.611V11.8734H3.67961C2.53081 11.8734 1.59961 10.9542 1.59961 9.82061V4.4526C1.59961 3.319 2.53081 2.3998 3.67961 2.3998Z" fill="#444444"/>
</svg>
