<svg width="18" height="19" viewBox="0 0 18 19" fill="none" xmlns="http://www.w3.org/2000/svg">
<path opacity="0.8" d="M1 2.41211C1 2.14689 1.10536 1.89254 1.29289 1.705C1.48043 1.51747 1.73478 1.41211 2 1.41211H6C6.26522 1.41211 6.51957 1.51747 6.70711 1.705C6.89464 1.89254 7 2.14689 7 2.41211V7.41211C7 7.67733 6.89464 7.93168 6.70711 8.11922C6.51957 8.30675 6.26522 8.41211 6 8.41211H2C1.73478 8.41211 1.48043 8.30675 1.29289 8.11922C1.10536 7.93168 1 7.67733 1 7.41211V2.41211ZM11 2.41211C11 2.14689 11.1054 1.89254 11.2929 1.705C11.4804 1.51747 11.7348 1.41211 12 1.41211H16C16.2652 1.41211 16.5196 1.51747 16.7071 1.705C16.8946 1.89254 17 2.14689 17 2.41211V4.41211C17 4.67733 16.8946 4.93168 16.7071 5.11922C16.5196 5.30675 16.2652 5.41211 16 5.41211H12C11.7348 5.41211 11.4804 5.30675 11.2929 5.11922C11.1054 4.93168 11 4.67733 11 4.41211V2.41211ZM1 13.4121C1 13.1469 1.10536 12.8925 1.29289 12.705C1.48043 12.5175 1.73478 12.4121 2 12.4121H6C6.26522 12.4121 6.51957 12.5175 6.70711 12.705C6.89464 12.8925 7 13.1469 7 13.4121V16.4121C7 16.6773 6.89464 16.9317 6.70711 17.1192C6.51957 17.3068 6.26522 17.4121 6 17.4121H2C1.73478 17.4121 1.48043 17.3068 1.29289 17.1192C1.10536 16.9317 1 16.6773 1 16.4121V13.4121ZM11 10.4121C11 10.1469 11.1054 9.89254 11.2929 9.705C11.4804 9.51747 11.7348 9.41211 12 9.41211H16C16.2652 9.41211 16.5196 9.51747 16.7071 9.705C16.8946 9.89254 17 10.1469 17 10.4121V16.4121C17 16.6773 16.8946 16.9317 16.7071 17.1192C16.5196 17.3068 16.2652 17.4121 16 17.4121H12C11.7348 17.4121 11.4804 17.3068 11.2929 17.1192C11.1054 16.9317 11 16.6773 11 16.4121V10.4121Z" stroke="white" stroke-width="2"/>
</svg>
