<svg width="25" height="25" viewBox="0 0 25 25" fill="none" xmlns="http://www.w3.org/2000/svg">
<path d="M19.5 19.5H3.5V7.5C3.5 6.95 3.05 6.5 2.5 6.5C1.95 6.5 1.5 6.95 1.5 7.5V19.5C1.5 20.6 2.4 21.5 3.5 21.5H19.5C20.05 21.5 20.5 21.05 20.5 20.5C20.5 19.95 20.05 19.5 19.5 19.5Z" fill="#AAAAAA"/>
<path d="M21.5 4.5H14.5L13.09 3.09C12.71 2.71 12.2 2.5 11.67 2.5H7.5C6.4 2.5 5.51 3.4 5.51 4.5L5.5 15.5C5.5 16.6 6.4 17.5 7.5 17.5H21.5C22.6 17.5 23.5 16.6 23.5 15.5V6.5C23.5 5.4 22.6 4.5 21.5 4.5ZM18.5 13.5H10.5C10.4071 13.5 10.3161 13.4741 10.2371 13.4253C10.1581 13.3765 10.0943 13.3067 10.0528 13.2236C10.0113 13.1406 9.99368 13.0476 10.002 12.9551C10.0104 12.8626 10.0443 12.7743 10.1 12.7L11.48 10.87C11.68 10.6 12.08 10.6 12.28 10.87L13.5 12.5L15.72 9.53C15.92 9.26 16.32 9.26 16.52 9.53L18.9 12.7C18.9557 12.7743 18.9896 12.8626 18.998 12.9551C19.0063 13.0476 18.9887 13.1406 18.9472 13.2236C18.9057 13.3067 18.8419 13.3765 18.7629 13.4253C18.6839 13.4741 18.5929 13.5 18.5 13.5Z" fill="#AAAAAA"/>
</svg>
