<svg width="19" height="20" viewBox="0 0 19 20" fill="none" xmlns="http://www.w3.org/2000/svg">
<path d="M11 12.4124V4.41242M11 12.4124L16.504 15.5574C16.6561 15.6443 16.8283 15.6897 17.0034 15.6891C17.1785 15.6885 17.3504 15.6419 17.5019 15.554C17.6533 15.4662 17.7791 15.34 17.8665 15.1883C17.9539 15.0366 17.9999 14.8645 18 14.6894V2.13542C17.9999 1.9603 17.9539 1.78827 17.8665 1.63653C17.7791 1.4848 17.6533 1.35868 17.5019 1.27079C17.3504 1.18291 17.1785 1.13634 17.0034 1.13575C16.8283 1.13516 16.6561 1.18056 16.504 1.26742L11 4.41242M11 12.4124H8M11 4.41242H5C3.93913 4.41242 2.92172 4.83385 2.17157 5.58399C1.42143 6.33414 1 7.35155 1 8.41242C1 9.47329 1.42143 10.4907 2.17157 11.2408C2.92172 11.991 3.93913 12.4124 5 12.4124M8 12.4124V16.9124C8 17.3102 7.84196 17.6918 7.56066 17.9731C7.27936 18.2544 6.89782 18.4124 6.5 18.4124C6.10218 18.4124 5.72064 18.2544 5.43934 17.9731C5.15804 17.6918 5 17.3102 5 16.9124V12.4124M8 12.4124H5" stroke="white" stroke-width="2" stroke-linecap="round" stroke-linejoin="round"/>
</svg>
