<svg width="19" height="22" viewBox="0 0 19 22" fill="none" xmlns="http://www.w3.org/2000/svg">
<path d="M8 13.4121V15.4121C6.4087 15.4121 4.88258 16.0442 3.75736 17.1695C2.63214 18.2947 2 19.8208 2 21.4121H0C0 19.2904 0.842855 17.2555 2.34315 15.7553C3.84344 14.255 5.87827 13.4121 8 13.4121ZM8 12.4121C4.685 12.4121 2 9.72711 2 6.41211C2 3.09711 4.685 0.412109 8 0.412109C11.315 0.412109 14 3.09711 14 6.41211C14 9.72711 11.315 12.4121 8 12.4121ZM8 10.4121C10.21 10.4121 12 8.62211 12 6.41211C12 4.20211 10.21 2.41211 8 2.41211C5.79 2.41211 4 4.20211 4 6.41211C4 8.62211 5.79 10.4121 8 10.4121ZM10.595 18.2241C10.4682 17.6905 10.4682 17.1347 10.595 16.6011L9.603 16.0281L10.603 14.2961L11.595 14.8691C11.9932 14.492 12.4745 14.2138 13 14.0571V12.9121H15V14.0571C15.532 14.2151 16.012 14.4971 16.405 14.8691L17.397 14.2961L18.397 16.0281L17.405 16.6011C17.5316 17.1344 17.5316 17.6899 17.405 18.2231L18.397 18.7961L17.397 20.5281L16.405 19.9551C16.0068 20.3322 15.5255 20.6104 15 20.7671V21.9121H13V20.7671C12.4745 20.6104 11.9932 20.3322 11.595 19.9551L10.603 20.5281L9.603 18.7961L10.595 18.2241ZM14 18.9121C14.3978 18.9121 14.7794 18.7541 15.0607 18.4728C15.342 18.1915 15.5 17.8099 15.5 17.4121C15.5 17.0143 15.342 16.6328 15.0607 16.3514C14.7794 16.0701 14.3978 15.9121 14 15.9121C13.6022 15.9121 13.2206 16.0701 12.9393 16.3514C12.658 16.6328 12.5 17.0143 12.5 17.4121C12.5 17.8099 12.658 18.1915 12.9393 18.4728C13.2206 18.7541 13.6022 18.9121 14 18.9121Z" fill="white"/>
</svg>
