<svg width="19" height="19" viewBox="0 0 19 19" fill="none" xmlns="http://www.w3.org/2000/svg">
<path d="M13 10.9121C13.4333 10.9121 13.7917 10.7704 14.075 10.4871C14.3583 10.2038 14.5 9.84544 14.5 9.41211C14.5 8.97878 14.3583 8.62044 14.075 8.33711C13.7917 8.05378 13.4333 7.91211 13 7.91211C12.5667 7.91211 12.2083 8.05378 11.925 8.33711C11.6417 8.62044 11.5 8.97878 11.5 9.41211C11.5 9.84544 11.6417 10.2038 11.925 10.4871C12.2083 10.7704 12.5667 10.9121 13 10.9121ZM2 16.4121V2.41211V16.4121ZM2 18.4121C1.45 18.4121 0.979 18.2164 0.587 17.8251C0.195667 17.4331 0 16.9621 0 16.4121V2.41211C0 1.86211 0.195667 1.39111 0.587 0.999109C0.979 0.607776 1.45 0.412109 2 0.412109H16C16.55 0.412109 17.021 0.607776 17.413 0.999109C17.8043 1.39111 18 1.86211 18 2.41211V4.91211H16V2.41211H2V16.4121H16V13.9121H18V16.4121C18 16.9621 17.8043 17.4331 17.413 17.8251C17.021 18.2164 16.55 18.4121 16 18.4121H2ZM10 14.4121C9.45 14.4121 8.97933 14.2164 8.588 13.8251C8.196 13.4331 8 12.9621 8 12.4121V6.41211C8 5.86211 8.196 5.39111 8.588 4.99911C8.97933 4.60778 9.45 4.41211 10 4.41211H17C17.55 4.41211 18.021 4.60778 18.413 4.99911C18.8043 5.39111 19 5.86211 19 6.41211V12.4121C19 12.9621 18.8043 13.4331 18.413 13.8251C18.021 14.2164 17.55 14.4121 17 14.4121H10ZM17 12.4121V6.41211H10V12.4121H17Z" fill="white"/>
</svg>
